<?xml version="1.0" standalone="no"?>
<!DOCTYPE svg PUBLIC "-//W3C//DTD SVG 20010904//EN"
 "http://www.w3.org/TR/2001/REC-SVG-20010904/DTD/svg10.dtd">
<svg version="1.0" xmlns="http://www.w3.org/2000/svg"
 width="700.000000pt" height="700.000000pt" viewBox="0 0 700.000000 700.000000"
 preserveAspectRatio="xMidYMid meet">
<metadata>
Created by potrace 1.11, written by Peter Selinger 2001-2013
</metadata>
<g transform="translate(0.000000,700.000000) scale(0.100000,-0.100000)"
fill="#000000" stroke="none">
<path d="M0 3500 l0 -3500 3500 0 3500 0 0 3500 0 3500 -3500 0 -3500 0 0
-3500z m4758 1218 l2 -378 -45 0 -45 0 0 330 0 330 -200 0 -200 0 0 -316 0
-315 -42 3 -43 3 -3 313 -2 312 -208 -2 -207 -3 -3 -327 -2 -328 -40 0 -40 0
0 380 0 380 538 -2 537 -3 3 -377z m-1438 322 l0 -50 -495 0 -495 0 0 -285 0
-285 -45 0 -45 0 0 335 0 335 540 0 540 0 0 -50z m1440 -1707 c0 -665 -20
-824 -132 -1048 -120 -239 -308 -392 -601 -490 -176 -58 -261 -69 -537 -69
-277 0 -361 10 -540 70 -192 64 -363 175 -469 306 -75 91 -155 259 -191 400
-42 166 -50 296 -50 801 l0 447 1260 0 1260 0 0 -417z"/>
<path d="M2443 3148 c3 -284 8 -395 20 -464 81 -452 325 -673 804 -725 154
-17 459 -6 586 21 298 63 478 190 588 415 94 193 119 369 119 833 l0 292
-1061 0 -1061 0 5 -372z"/>
</g>
</svg>
