<?xml version="1.0" encoding="UTF-8"?>
<svg width="700px" height="700px" viewBox="0 0 700 700" version="1.1" xmlns="http://www.w3.org/2000/svg" xmlns:xlink="http://www.w3.org/1999/xlink">
    <g id="Page-1" stroke="none" stroke-width="1" fill="none" fill-rule="evenodd">
        <g id="safari-pinned-tab" fill="#000000" fill-rule="nonzero">
            <g id="Group" transform="translate(350.000000, 350.000000) scale(-1, 1) rotate(-180.000000) translate(-350.000000, -350.000000) translate(0.000000, -0.000000)">
                <path d="M0,350 L0,0 L350,0 L700,0 L700,350 L700,700 L350,700 L0,700 L0,350 Z M475.8,471.8 L476,434 L471.5,434 L467,434 L467,467 L467,500 L447,500 L427,500 L427,468.4 L427,436.9 L422.8,437.2 L418.5,437.5 L418.2,468.8 L418,500 L397.2,499.8 L376.5,499.5 L376.2,466.8 L376,434 L372,434 L368,434 L368,472 L368,510 L421.8,509.8 L475.5,509.5 L475.8,471.8 Z M332,504 L332,499 L282.5,499 L233,499 L233,470.5 L233,442 L228.5,442 L224,442 L224,475.5 L224,509 L278,509 L332,509 L332,504 Z M476,333.3 C476,266.8 474,250.9 462.8,228.5 C450.8,204.6 432,189.3 402.7,179.5 C385.1,173.7 376.6,172.6 349,172.6 C321.3,172.6 312.9,173.6 295,179.6 C275.8,186 258.7,197.1 248.1,210.2 C240.6,219.3 232.6,236.1 229,250.2 C224.8,266.8 224,279.8 224,330.3 L224,375 L350,375 L476,375 L476,333.3 Z" id="Shape"></path>
                <path d="M244.3,314.8 C244.6,286.4 245.1,275.3 246.3,268.4 C254.4,223.2 278.8,201.1 326.7,195.9 C342.1,194.2 372.6,195.3 385.3,198 C415.1,204.3 433.1,217 444.1,239.5 C453.5,258.8 456,276.4 456,322.8 L456,352 L349.9,352 L243.8,352 L244.3,314.8 Z" id="Shape"></path>
            </g>
        </g>
    </g>
</svg>
