<?xml version="1.0" standalone="no"?>
<!DOCTYPE svg PUBLIC "-//W3C//DTD SVG 20010904//EN"
 "http://www.w3.org/TR/2001/REC-SVG-20010904/DTD/svg10.dtd">
<svg version="1.0" xmlns="http://www.w3.org/2000/svg"
 width="700.000000pt" height="700.000000pt" viewBox="0 0 700.000000 700.000000"
 preserveAspectRatio="xMidYMid meet">
<metadata>
Created by potrace 1.11, written by Peter Selinger 2001-2013
</metadata>
<g transform="translate(0.000000,700.000000) scale(0.100000,-0.100000)"
fill="#000000" stroke="none">
<path d="M3215 6989 c-748 -64 -1435 -351 -1995 -835 -551 -475 -938 -1101
-1114 -1799 -34 -137 -72 -346 -88 -490 -17 -155 -17 -575 0 -730 63 -570 255
-1100 567 -1570 270 -405 644 -771 1047 -1024 457 -287 944 -456 1503 -523
139 -16 595 -16 730 0 847 103 1555 446 2131 1034 204 208 346 389 490 623
269 439 429 910 496 1460 16 130 16 600 0 730 -73 596 -246 1079 -557 1555
-139 213 -239 336 -449 548 -657 668 -1554 1038 -2496 1031 -91 -1 -210 -6
-265 -10z m15 -1679 l0 -560 -60 0 -60 0 0 485 0 485 -315 0 -315 0 0 -460 0
-460 -60 0 -60 0 0 460 0 460 -300 0 -300 0 0 -485 0 -485 -65 0 -65 0 0 560
0 560 800 0 800 0 0 -560z m2140 475 l0 -75 -740 0 -740 0 0 -425 0 -425 -60
0 -60 0 0 500 0 500 800 0 800 0 0 -75z m-3 -2672 c-4 -630 -7 -766 -21 -863
-43 -298 -130 -543 -264 -745 -26 -38 -85 -110 -132 -159 -244 -254 -575 -409
-1020 -479 -200 -31 -633 -30 -838 1 -735 114 -1200 480 -1373 1081 -78 269
-81 312 -86 1164 l-5 747 1872 0 1872 0 -5 -747z"/>
<path d="M1930 3048 c0 -505 7 -633 45 -824 103 -512 372 -819 835 -953 216
-62 385 -81 714 -81 523 0 843 84 1100 290 201 162 335 406 400 730 40 200 46
314 46 827 l0 483 -1570 0 -1570 0 0 -472z"/>
</g>
</svg>
