<svg xmlns="http://www.w3.org/2000/svg" viewBox="0 0 3924.39 427.05">
  <style>
    path {
      fill: white;
    }
  </style>
  <path
    d="M0,2.36H17L67.16,168.58,112.64,2.36h23.68l46,168,50-168h16.82L196,181H170.58L124.6,13.7,78.87,181H54.2Z"></path>
  <path
    d="M275.86,181V2.36h125V16.44H292.43V83.36H395.72v14H292.43V167h108.4V181Z"></path>
  <path
    d="M449.29,181V2.36h84.36c14.2,0,25.42,4.24,33.52,12.59S579.38,35,579.38,49.84c0,15.45-7.1,27.66-19.94,34.26a42.85,42.85,0,0,1,23.8,17.32c5.86,8.6,8.85,18.82,8.85,30.91,0,14.2-5,25.91-14.83,35S554.71,181,539.38,181ZM465.87,79h62.67c21.81,0,34.27-10.35,34.27-29.16,0-21.56-12.46-33.4-34.27-33.4H465.87Zm0,88h73.76c10.84,0,19.44-3.11,26-9.34s9.85-14.7,9.85-25.29c0-11.59-3.37-21.06-10-28.41s-15.2-11-25.92-11H465.87Z"></path>
  <path d="M2.62,425.25,88.34,246.57h15.58L18.44,425.25Z"></path>
  <path
    d="M96.2,425.25l72.27-178.68h25.92l72.27,178.68H249.59l-23.3-57.44H136.57l-23.3,57.44Zm46-71.4h78.5l-39.25-97.06Z"></path>
  <path
    d="M295.93,425.25V246.57H380a51.82,51.82,0,0,1,23.42,5.48,43.42,43.42,0,0,1,17.82,16.45,45.61,45.61,0,0,1,7,25c0,15.58-5.48,29.41-14,37.88a44.8,44.8,0,0,1-31.4,13.46H312.5v80.37ZM312.5,330.8h64.55c21.31,0,34.64-12.83,34.64-37.26,0-21.43-13.83-32.89-35.64-32.89H312.5Z"></path>
  <path
    d="M456.91,425.25V246.57H541a51.88,51.88,0,0,1,23.42,5.48,43.48,43.48,0,0,1,17.82,16.45,45.61,45.61,0,0,1,7,25c0,15.58-5.49,29.41-14,37.88a44.8,44.8,0,0,1-31.4,13.46h-70.4v80.37Zm16.57-94.45H538c21.3,0,34.64-12.83,34.64-37.26,0-21.43-13.84-32.89-35.64-32.89H473.48Z"></path>
  <path
    d="M714,255.82c0,49.54,15.65,87.21,40.85,108.07,25.5,20.86,55,30.71,89.52,30.71a167.07,167.07,0,0,0,56.21-9.27c17.09-6.38,31.29-16.23,42.3-29.27,11-13.32,16.51-28.68,16.51-46.35,0-12.75-2-22.89-9-31.87S938.8,263.06,924.9,256.4c-7-3.48-13-6.37-18-8.4-4.92-2.32-12.74-4.93-22.88-7.82-10.14-3.19-18.26-5.51-24.92-7.25l-29.55-7.53L800,217.87c-7.82-2.32-17.1-5.22-27.82-9a212.23,212.23,0,0,1-26.94-11.3c-14.2-7.82-31.87-19.7-41.14-32.16A86.33,86.33,0,0,1,688.2,115c0-29.84,13-57.66,36.21-79.38S786.41,0,831.9,0c46.64,0,83.15,13,109.8,39.4C968.64,65.77,982,102.56,982,150.07H943.44q0-117.33-108.65-117.33C759.47,32.74,727,75.33,727,113.86a60,60,0,0,0,7,27.23c3.77,7.25,13.33,14.78,20.28,19.7s21.73,11,31,14.49c4.64,1.74,11,3.77,19.41,6.08l20.57,5.8L848.41,193l21.44,5.51c5.5,1.45,12.75,3.47,21.73,6.37,9.27,2.9,16.8,5.51,22.89,8.11,6.08,2.32,13.32,5.51,21.44,9.56,16.22,7.83,25.2,14.78,36.79,26.08,16.51,15.64,24.63,35.63,25.5,62.29a96.94,96.94,0,0,1-21.44,61.71C948.07,408.5,899.4,427,843.78,427c-87.79.29-168.62-50.41-168.62-171.22Z"></path>
  <path
    d="M1251.12.58c115-1.74,195.56,89.52,194.12,211.78,0,41.43-8.12,78.52-24,111.26-15.94,32.44-38.82,57.94-68.38,76.19-29.26,18.25-63.15,27.23-101.69,27.23s-72.43-9-102-27.23c-29.26-18.25-52.15-43.75-68.08-76.19-15.94-32.74-24-69.83-24-111.26C1055.56,90.1,1136.11-1.16,1251.12.58Zm0,394q70.41,0,113-50.41c28.4-33.61,42.59-77.07,42.59-130.67,1.45-104.3-62.29-181.65-155.58-180.2-46.64,0-84.3,16.8-112.7,50.12s-42.59,76.77-42.59,130.08C1094.68,319,1157.83,395.76,1251.12,394.6Z"></path>
  <path d="M1498.55,421.25V5.79h38.53V388.51h219v32.74Z"></path>
  <path
    d="M1794.64,5.21h38.54V271.76c1.15,37.08,13.9,66.92,38,89.23,24.34,22.31,54.47,33.61,90.68,33.61,35.93,0,65.48-11.3,88.37-33.61s34.47-52.15,34.47-89.23V5.21h38.53V271.76c0,46.06-15.35,83.72-46.06,112.41C2046.7,412.85,2008.17,427,1961.81,427c-45.48,0-87.78-15.64-118.2-42.29-30.13-26.66-49-66.93-49-113Z"></path>
  <path
    d="M2164.62,38.53V5.79H2508.8V38.53H2356.41V421.25h-38.53V38.53Z"></path>
  <path d="M2580.08,421.25V5.79h38.53V421.25Z"></path>
  <path
    d="M2898.48.58c115-1.74,195.56,89.52,194.11,211.78,0,41.43-8.11,78.52-24,111.26-15.94,32.44-38.83,57.94-68.38,76.19C2970.91,418.06,2937,427,2898.48,427s-72.43-9-102-27.23c-29.26-18.25-52.15-43.75-68.08-76.19-15.94-32.74-24.05-69.83-24.05-111.26C2702.92,90.1,2783.46-1.16,2898.48.58Zm0,394q70.41,0,113-50.41c28.4-33.61,42.59-77.07,42.59-130.67,1.45-104.3-62.29-181.65-155.58-180.2-46.64,0-84.31,16.8-112.7,50.12s-42.59,76.77-42.59,130.08C2742,319,2805.19,395.76,2898.48,394.6Z"></path>
  <path
    d="M3178.65,421.25V5.79h69.82L3477.06,403V5.79h38.53V421.25h-72.43l-226-392.86V421.25Z"></path>
  <path
    d="M3640.17,255.82c0,49.54,15.65,87.21,40.85,108.07,25.5,20.86,55.05,30.71,89.53,30.71a167,167,0,0,0,56.2-9.27c17.09-6.38,31.29-16.23,42.3-29.27,11-13.32,16.51-28.68,16.51-46.35,0-12.75-2-22.89-9-31.87s-11.59-14.78-25.49-21.44c-7-3.48-13-6.37-18-8.4-4.92-2.32-12.74-4.93-22.88-7.82-10.14-3.19-18.25-5.51-24.92-7.25l-29.55-7.53-29.55-7.53c-7.82-2.32-17.1-5.22-27.81-9a212.43,212.43,0,0,1-26.95-11.3c-14.19-7.82-31.87-19.7-41.14-32.16A86.33,86.33,0,0,1,3614.39,115c0-29.84,13-57.66,36.21-79.38S3712.6,0,3758.09,0c46.64,0,83.15,13,109.8,39.4,26.94,26.37,40.27,63.16,40.27,110.67h-38.53q0-117.33-108.64-117.33c-75.33,0-107.78,42.59-107.78,81.12a60,60,0,0,0,6.95,27.23c3.77,7.25,13.33,14.78,20.28,19.7s21.73,11,31,14.49c4.64,1.74,11,3.77,19.41,6.08l20.57,5.8L3774.6,193l21.44,5.51c5.51,1.45,12.75,3.47,21.73,6.37,9.27,2.9,16.8,5.51,22.89,8.11,6.08,2.32,13.32,5.51,21.44,9.56,16.22,7.83,25.2,14.78,36.79,26.08,16.52,15.64,24.63,35.63,25.5,62.29A96.94,96.94,0,0,1,3903,372.58C3874.26,408.5,3825.59,427,3770,427c-87.79.29-168.62-50.41-168.62-171.22Z"></path>
</svg>
