<?xml version="1.0" encoding="UTF-8"?>
<svg xmlns="http://www.w3.org/2000/svg" xmlns:xlink="http://www.w3.org/1999/xlink" width="400px" height="111px" viewBox="0 0 401 111" version="1.1">
<defs>
<linearGradient id="linear0" gradientUnits="userSpaceOnUse" x1="37.2843" y1="34.0448" x2="18.7823" y2="55.7227" gradientTransform="matrix(2.015075,0,0,2.018182,0,0)">
<stop offset="0" style="stop-color:rgb(25.882353%,52.156863%,95.686275%);stop-opacity:1;"/>
<stop offset="1" style="stop-color:rgb(10.588235%,45.490196%,90.980392%);stop-opacity:1;"/>
</linearGradient>
</defs>
<g id="surface1">
<path style=" stroke:none;fill-rule:nonzero;fill:rgb(12.156863%,12.156863%,12.156863%);fill-opacity:1;" d="M 55.414062 1.007812 L 345.585938 1.007812 C 375.632812 1.007812 399.992188 25.40625 399.992188 55.5 C 399.992188 85.59375 375.632812 109.992188 345.585938 109.992188 L 55.414062 109.992188 C 25.367188 109.992188 1.007812 85.59375 1.007812 55.5 C 1.007812 25.40625 25.367188 1.007812 55.414062 1.007812 Z M 55.414062 1.007812 "/>
<path style=" stroke:none;fill-rule:nonzero;fill:rgb(20.392157%,65.882353%,32.54902%);fill-opacity:1;" d="M 114.859375 48.015625 L 42.316406 48.015625 L 42.316406 36.621094 C 42.316406 30.4375 47.640625 25.226562 53.964844 25.226562 L 103.210938 25.226562 C 109.535156 25.226562 114.859375 30.4375 114.859375 36.621094 Z M 114.859375 48.015625 "/>
<path style=" stroke:none;fill-rule:nonzero;fill:rgb(98.431373%,73.72549%,1.568627%);fill-opacity:1;" d="M 114.859375 58.527344 L 42.316406 58.527344 L 42.316406 46.417969 C 42.316406 39.84375 47.640625 34.308594 53.964844 34.308594 L 103.210938 34.308594 C 109.535156 34.308594 114.859375 39.84375 114.859375 46.417969 Z M 114.859375 58.527344 "/>
<path style=" stroke:none;fill-rule:nonzero;fill:rgb(91.764706%,26.27451%,20.784314%);fill-opacity:1;" d="M 114.859375 68.617188 L 42.316406 68.617188 L 42.316406 56.507812 C 42.316406 49.9375 47.640625 44.398438 53.964844 44.398438 L 103.210938 44.398438 C 109.535156 44.398438 114.859375 49.9375 114.859375 56.507812 Z M 114.859375 68.617188 "/>
<path style=" stroke:none;fill-rule:nonzero;fill:url(#linear0);" d="M 42.316406 50.941406 L 88.359375 61.359375 C 93.660156 62.660156 99.621094 61.359375 103.929688 58.101562 L 114.859375 50.289062 L 114.859375 74.703125 C 114.859375 80.890625 109.558594 85.773438 103.265625 85.773438 L 53.910156 85.773438 C 47.617188 85.773438 42.316406 80.890625 42.316406 74.703125 Z M 42.316406 50.941406 "/>
<path style=" stroke:none;fill-rule:nonzero;fill:rgb(100%,100%,100%);fill-opacity:1;" d="M 139.433594 43.390625 L 146.507812 24.605469 L 149.78125 24.605469 L 156.878906 43.390625 L 153.710938 43.390625 L 151.980469 38.5625 L 144.332031 38.5625 L 142.601562 43.390625 Z M 147.371094 30.140625 L 145.300781 35.886719 L 151.011719 35.886719 L 148.941406 30.140625 L 148.234375 27.988281 L 148.078125 27.988281 Z M 164.257812 43.8125 C 163.050781 43.8125 161.960938 43.511719 160.984375 42.917969 C 160.023438 42.304688 159.253906 41.46875 158.675781 40.398438 C 158.117188 39.316406 157.839844 38.082031 157.839844 36.699219 C 157.839844 35.320312 158.117188 34.09375 158.675781 33.027344 C 159.253906 31.960938 160.023438 31.121094 160.984375 30.507812 C 161.960938 29.898438 163.050781 29.589844 164.257812 29.589844 C 165.289062 29.589844 166.167969 29.816406 166.902344 30.273438 C 167.652344 30.726562 168.203125 31.242188 168.554688 31.820312 L 168.710938 31.820312 L 168.554688 29.957031 L 168.554688 24.605469 L 171.355469 24.605469 L 171.355469 43.390625 L 168.710938 43.390625 L 168.710938 41.605469 L 168.554688 41.605469 C 168.203125 42.183594 167.652344 42.699219 166.902344 43.15625 C 166.167969 43.59375 165.289062 43.8125 164.257812 43.8125 Z M 164.675781 41.214844 C 165.375 41.214844 166.03125 41.03125 166.640625 40.664062 C 167.269531 40.296875 167.769531 39.777344 168.132812 39.113281 C 168.519531 38.433594 168.710938 37.628906 168.710938 36.699219 C 168.710938 35.773438 168.519531 34.976562 168.132812 34.3125 C 167.769531 33.632812 167.269531 33.105469 166.640625 32.738281 C 166.03125 32.371094 165.375 32.1875 164.675781 32.1875 C 163.976562 32.1875 163.324219 32.371094 162.710938 32.738281 C 162.101562 33.105469 161.601562 33.632812 161.21875 34.3125 C 160.835938 34.976562 160.640625 35.773438 160.640625 36.699219 C 160.640625 37.628906 160.835938 38.433594 161.21875 39.113281 C 161.601562 39.777344 162.101562 40.296875 162.710938 40.664062 C 163.324219 41.03125 163.976562 41.214844 164.675781 41.214844 Z M 180.273438 43.8125 C 179.066406 43.8125 177.976562 43.511719 176.996094 42.917969 C 176.035156 42.304688 175.269531 41.46875 174.691406 40.398438 C 174.132812 39.316406 173.855469 38.082031 173.855469 36.699219 C 173.855469 35.320312 174.132812 34.09375 174.691406 33.027344 C 175.269531 31.960938 176.035156 31.121094 176.996094 30.507812 C 177.976562 29.898438 179.066406 29.589844 180.273438 29.589844 C 181.300781 29.589844 182.183594 29.816406 182.917969 30.273438 C 183.667969 30.726562 184.21875 31.242188 184.566406 31.820312 L 184.726562 31.820312 L 184.566406 29.957031 L 184.566406 24.605469 L 187.371094 24.605469 L 187.371094 43.390625 L 184.726562 43.390625 L 184.726562 41.605469 L 184.566406 41.605469 C 184.21875 42.183594 183.667969 42.699219 182.917969 43.15625 C 182.183594 43.59375 181.300781 43.8125 180.273438 43.8125 Z M 180.691406 41.214844 C 181.390625 41.214844 182.042969 41.03125 182.65625 40.664062 C 183.285156 40.296875 183.78125 39.777344 184.148438 39.113281 C 184.53125 38.433594 184.726562 37.628906 184.726562 36.699219 C 184.726562 35.773438 184.53125 34.976562 184.148438 34.3125 C 183.78125 33.632812 183.285156 33.105469 182.65625 32.738281 C 182.042969 32.371094 181.390625 32.1875 180.691406 32.1875 C 179.992188 32.1875 179.335938 32.371094 178.726562 32.738281 C 178.113281 33.105469 177.617188 33.632812 177.234375 34.3125 C 176.847656 34.976562 176.65625 35.773438 176.65625 36.699219 C 176.65625 37.628906 176.847656 38.433594 177.234375 39.113281 C 177.617188 39.777344 178.113281 40.296875 178.726562 40.664062 C 179.335938 41.03125 179.992188 41.214844 180.691406 41.214844 Z M 198.230469 39.507812 L 198.230469 32.476562 L 195.902344 32.476562 L 195.902344 30.011719 L 198.230469 30.011719 L 198.230469 26.230469 L 201.0625 26.230469 L 201.0625 30.011719 L 204.335938 30.011719 L 204.335938 32.476562 L 201.0625 32.476562 L 201.0625 38.90625 C 201.0625 39.570312 201.191406 40.078125 201.453125 40.425781 C 201.734375 40.777344 202.195312 40.949219 202.84375 40.949219 C 203.175781 40.949219 203.453125 40.90625 203.683594 40.820312 C 203.925781 40.730469 204.167969 40.609375 204.414062 40.453125 L 204.414062 43.207031 C 204.117188 43.328125 203.800781 43.425781 203.472656 43.496094 C 203.140625 43.566406 202.746094 43.601562 202.292969 43.601562 C 201.050781 43.601562 200.066406 43.242188 199.332031 42.523438 C 198.597656 41.789062 198.230469 40.785156 198.230469 39.507812 Z M 212.828125 43.8125 C 211.445312 43.8125 210.234375 43.496094 209.183594 42.867188 C 208.136719 42.238281 207.316406 41.386719 206.722656 40.320312 C 206.128906 39.253906 205.832031 38.046875 205.832031 36.699219 C 205.832031 35.371094 206.128906 34.171875 206.722656 33.105469 C 207.316406 32.023438 208.136719 31.164062 209.183594 30.535156 C 210.234375 29.90625 211.445312 29.589844 212.828125 29.589844 C 214.1875 29.589844 215.394531 29.90625 216.441406 30.535156 C 217.488281 31.164062 218.308594 32.023438 218.902344 33.105469 C 219.496094 34.171875 219.792969 35.371094 219.792969 36.699219 C 219.792969 38.046875 219.496094 39.253906 218.902344 40.320312 C 218.308594 41.386719 217.488281 42.238281 216.441406 42.867188 C 215.394531 43.496094 214.1875 43.8125 212.828125 43.8125 Z M 212.828125 41.214844 C 213.558594 41.214844 214.242188 41.039062 214.871094 40.6875 C 215.5 40.320312 216.003906 39.804688 216.390625 39.140625 C 216.789062 38.457031 216.992188 37.644531 216.992188 36.699219 C 216.992188 35.757812 216.789062 34.953125 216.390625 34.285156 C 216.003906 33.605469 215.5 33.089844 214.871094 32.738281 C 214.242188 32.371094 213.558594 32.1875 212.828125 32.1875 C 212.09375 32.1875 211.402344 32.371094 210.757812 32.738281 C 210.128906 33.089844 209.613281 33.605469 209.210938 34.285156 C 208.828125 34.953125 208.636719 35.757812 208.636719 36.699219 C 208.636719 37.644531 208.828125 38.457031 209.210938 39.140625 C 209.613281 39.804688 210.128906 40.320312 210.757812 40.6875 C 211.402344 41.039062 212.09375 41.214844 212.828125 41.214844 Z M 212.828125 41.214844 "/>
<path style=" stroke:none;fill-rule:nonzero;fill:rgb(100%,100%,100%);fill-opacity:1;" d="M 153.429688 84.304688 C 151.667969 84.304688 150.015625 83.984375 148.460938 83.34375 C 146.929688 82.703125 145.570312 81.808594 144.382812 80.667969 C 143.195312 79.5 142.261719 78.140625 141.574219 76.582031 C 140.914062 75.003906 140.582031 73.300781 140.582031 71.472656 C 140.582031 69.640625 140.914062 67.949219 141.574219 66.394531 C 142.261719 64.816406 143.183594 63.453125 144.351562 62.3125 C 145.539062 61.144531 146.90625 60.242188 148.460938 59.601562 C 150.015625 58.960938 151.667969 58.640625 153.429688 58.640625 C 155.300781 58.640625 157.023438 58.972656 158.601562 59.636719 C 160.199219 60.296875 161.535156 61.226562 162.609375 62.414062 L 160.003906 64.988281 C 159.207031 64.09375 158.246094 63.410156 157.128906 62.929688 C 156.03125 62.449219 154.796875 62.207031 153.429688 62.207031 C 151.804688 62.207031 150.308594 62.597656 148.941406 63.375 C 147.570312 64.128906 146.460938 65.203125 145.617188 66.601562 C 144.796875 67.972656 144.382812 69.597656 144.382812 71.472656 C 144.382812 73.347656 144.808594 74.984375 145.652344 76.378906 C 146.496094 77.75 147.605469 78.824219 148.972656 79.601562 C 150.34375 80.359375 151.839844 80.734375 153.460938 80.734375 C 154.945312 80.734375 156.292969 80.460938 157.503906 79.910156 C 158.714844 79.339844 159.683594 78.539062 160.417969 77.511719 C 161.167969 76.480469 161.625 75.246094 161.785156 73.804688 L 153.394531 73.804688 L 153.394531 70.476562 L 165.316406 70.476562 C 165.453125 71.09375 165.519531 71.746094 165.519531 72.433594 L 165.519531 72.46875 C 165.519531 74.84375 164.996094 76.925781 163.945312 78.710938 C 162.917969 80.472656 161.488281 81.84375 159.664062 82.828125 C 157.835938 83.8125 155.757812 84.304688 153.429688 84.304688 Z M 176.550781 84.304688 C 174.746094 84.304688 173.160156 83.890625 171.789062 83.070312 C 170.417969 82.246094 169.34375 81.136719 168.570312 79.742188 C 167.792969 78.34375 167.402344 76.765625 167.402344 75.003906 C 167.402344 73.265625 167.792969 71.699219 168.570312 70.304688 C 169.34375 68.886719 170.417969 67.765625 171.789062 66.941406 C 173.160156 66.121094 174.746094 65.707031 176.550781 65.707031 C 178.332031 65.707031 179.90625 66.121094 181.277344 66.941406 C 182.648438 67.765625 183.722656 68.886719 184.5 70.304688 C 185.273438 71.699219 185.664062 73.265625 185.664062 75.003906 C 185.664062 76.765625 185.273438 78.34375 184.5 79.742188 C 183.722656 81.136719 182.648438 82.246094 181.277344 83.070312 C 179.90625 83.890625 178.332031 84.304688 176.550781 84.304688 Z M 176.550781 80.90625 C 177.511719 80.90625 178.402344 80.679688 179.222656 80.222656 C 180.042969 79.742188 180.707031 79.066406 181.210938 78.195312 C 181.734375 77.304688 181.996094 76.242188 181.996094 75.003906 C 181.996094 73.769531 181.734375 72.71875 181.210938 71.847656 C 180.707031 70.957031 180.042969 70.28125 179.222656 69.824219 C 178.402344 69.34375 177.511719 69.105469 176.550781 69.105469 C 175.589844 69.105469 174.6875 69.34375 173.84375 69.824219 C 173.023438 70.28125 172.347656 70.957031 171.824219 71.847656 C 171.320312 72.71875 171.070312 73.769531 171.070312 75.003906 C 171.070312 76.242188 171.320312 77.304688 171.824219 78.195312 C 172.347656 79.066406 173.023438 79.742188 173.84375 80.222656 C 174.6875 80.679688 175.589844 80.90625 176.550781 80.90625 Z M 197.292969 84.304688 C 195.488281 84.304688 193.898438 83.890625 192.53125 83.070312 C 191.160156 82.246094 190.085938 81.136719 189.308594 79.742188 C 188.535156 78.34375 188.144531 76.765625 188.144531 75.003906 C 188.144531 73.265625 188.535156 71.699219 189.308594 70.304688 C 190.085938 68.886719 191.160156 67.765625 192.53125 66.941406 C 193.898438 66.121094 195.488281 65.707031 197.292969 65.707031 C 199.074219 65.707031 200.648438 66.121094 202.019531 66.941406 C 203.390625 67.765625 204.464844 68.886719 205.238281 70.304688 C 206.015625 71.699219 206.402344 73.265625 206.402344 75.003906 C 206.402344 76.765625 206.015625 78.34375 205.238281 79.742188 C 204.464844 81.136719 203.390625 82.246094 202.019531 83.070312 C 200.648438 83.890625 199.074219 84.304688 197.292969 84.304688 Z M 197.292969 80.90625 C 198.25 80.90625 199.140625 80.679688 199.964844 80.222656 C 200.785156 79.742188 201.449219 79.066406 201.949219 78.195312 C 202.476562 77.304688 202.738281 76.242188 202.738281 75.003906 C 202.738281 73.769531 202.476562 72.71875 201.949219 71.847656 C 201.449219 70.957031 200.785156 70.28125 199.964844 69.824219 C 199.140625 69.34375 198.25 69.105469 197.292969 69.105469 C 196.332031 69.105469 195.429688 69.34375 194.585938 69.824219 C 193.761719 70.28125 193.089844 70.957031 192.5625 71.847656 C 192.0625 72.71875 191.8125 73.769531 191.8125 75.003906 C 191.8125 76.242188 192.0625 77.304688 192.5625 78.195312 C 193.089844 79.066406 193.761719 79.742188 194.585938 80.222656 C 195.429688 80.679688 196.332031 80.90625 197.292969 80.90625 Z M 217.691406 91.714844 C 216.160156 91.714844 214.835938 91.460938 213.71875 90.960938 C 212.621094 90.480469 211.730469 89.851562 211.042969 89.074219 C 210.359375 88.316406 209.867188 87.539062 209.570312 86.738281 L 212.996094 85.296875 C 213.363281 86.214844 213.945312 86.957031 214.746094 87.527344 C 215.566406 88.125 216.546875 88.421875 217.691406 88.421875 C 219.289062 88.421875 220.542969 87.941406 221.457031 86.980469 C 222.394531 86.019531 222.863281 84.65625 222.863281 82.898438 L 222.863281 81.214844 L 222.65625 81.214844 C 222.109375 82.039062 221.34375 82.703125 220.363281 83.207031 C 219.402344 83.6875 218.308594 83.925781 217.074219 83.925781 C 215.589844 83.925781 214.230469 83.546875 212.996094 82.792969 C 211.765625 82.039062 210.769531 80.988281 210.015625 79.636719 C 209.261719 78.265625 208.886719 76.664062 208.886719 74.835938 C 208.886719 72.980469 209.261719 71.378906 210.015625 70.03125 C 210.769531 68.660156 211.765625 67.59375 212.996094 66.839844 C 214.230469 66.085938 215.589844 65.707031 217.074219 65.707031 C 218.308594 65.707031 219.402344 65.960938 220.363281 66.460938 C 221.34375 66.964844 222.109375 67.628906 222.65625 68.453125 L 222.863281 68.453125 L 222.863281 66.257812 L 226.390625 66.257812 L 226.390625 82.828125 C 226.390625 84.726562 226.015625 86.339844 225.261719 87.664062 C 224.53125 88.992188 223.515625 90 222.210938 90.683594 C 220.910156 91.371094 219.402344 91.714844 217.691406 91.714844 Z M 217.726562 80.5625 C 218.636719 80.5625 219.480469 80.347656 220.261719 79.910156 C 221.035156 79.453125 221.664062 78.800781 222.144531 77.957031 C 222.625 77.085938 222.863281 76.046875 222.863281 74.835938 C 222.863281 73.578125 222.625 72.523438 222.144531 71.679688 C 221.664062 70.808594 221.035156 70.15625 220.261719 69.722656 C 219.480469 69.289062 218.636719 69.070312 217.726562 69.070312 C 216.808594 69.070312 215.953125 69.300781 215.15625 69.757812 C 214.378906 70.191406 213.75 70.832031 213.273438 71.679688 C 212.792969 72.523438 212.550781 73.578125 212.550781 74.835938 C 212.550781 76.070312 212.792969 77.121094 213.273438 77.992188 C 213.75 78.835938 214.378906 79.476562 215.15625 79.910156 C 215.953125 80.347656 216.808594 80.5625 217.726562 80.5625 Z M 230.753906 83.753906 L 230.753906 59.1875 L 234.453125 59.1875 L 234.453125 83.753906 Z M 246.628906 84.304688 C 244.917969 84.304688 243.386719 83.902344 242.039062 83.101562 C 240.691406 82.300781 239.628906 81.203125 238.851562 79.808594 C 238.097656 78.414062 237.722656 76.824219 237.722656 75.039062 C 237.722656 73.371094 238.089844 71.828125 238.820312 70.410156 C 239.550781 68.988281 240.566406 67.859375 241.867188 67.011719 C 243.195312 66.140625 244.710938 65.707031 246.421875 65.707031 C 248.230469 65.707031 249.757812 66.097656 251.015625 66.875 C 252.292969 67.652344 253.265625 68.714844 253.925781 70.066406 C 254.589844 71.414062 254.917969 72.9375 254.917969 74.628906 C 254.917969 74.878906 254.910156 75.109375 254.886719 75.316406 C 254.886719 75.519531 254.875 75.679688 254.851562 75.792969 L 241.355469 75.792969 C 241.535156 77.53125 242.140625 78.835938 243.167969 79.707031 C 244.222656 80.574219 245.40625 81.011719 246.730469 81.011719 C 247.921875 81.011719 248.902344 80.746094 249.679688 80.222656 C 250.457031 79.671875 251.074219 78.996094 251.527344 78.195312 L 254.578125 79.671875 C 253.824219 81.042969 252.796875 82.164062 251.492188 83.035156 C 250.191406 83.878906 248.570312 84.304688 246.628906 84.304688 Z M 246.457031 68.863281 C 245.222656 68.863281 244.175781 69.242188 243.304688 69.996094 C 242.441406 70.75 241.855469 71.757812 241.558594 73.015625 L 251.253906 73.015625 C 251.210938 72.421875 251.015625 71.804688 250.671875 71.164062 C 250.328125 70.523438 249.804688 69.984375 249.09375 69.550781 C 248.410156 69.09375 247.53125 68.863281 246.457031 68.863281 Z M 269.976562 83.753906 L 263.402344 59.1875 L 267.578125 59.1875 L 271.484375 75.144531 L 271.894531 77.269531 L 272.101562 77.269531 L 272.617188 75.144531 L 277.546875 59.1875 L 281.316406 59.1875 L 286.042969 75.144531 L 286.558594 77.234375 L 286.761719 77.234375 L 287.175781 75.144531 L 291.078125 59.1875 L 295.226562 59.1875 L 288.75 83.753906 L 284.777344 83.753906 L 280.082031 67.457031 L 279.535156 65.160156 L 279.328125 65.160156 L 278.746094 67.457031 L 273.847656 83.753906 Z M 302.105469 84.304688 C 300.847656 84.304688 299.726562 84.0625 298.746094 83.582031 C 297.765625 83.078125 297 82.382812 296.453125 81.488281 C 295.902344 80.597656 295.628906 79.582031 295.628906 78.4375 C 295.628906 77.203125 295.949219 76.148438 296.589844 75.28125 C 297.25 74.386719 298.128906 73.714844 299.226562 73.257812 C 300.324219 72.796875 301.535156 72.570312 302.859375 72.570312 C 303.953125 72.570312 304.914062 72.671875 305.734375 72.878906 C 306.578125 73.085938 307.21875 73.300781 307.652344 73.53125 L 307.652344 72.605469 C 307.652344 71.460938 307.242188 70.546875 306.421875 69.859375 C 305.597656 69.171875 304.535156 68.832031 303.234375 68.832031 C 302.34375 68.832031 301.5 69.035156 300.699219 69.449219 C 299.898438 69.835938 299.261719 70.375 298.78125 71.058594 L 296.246094 69.105469 C 297 68.050781 297.992188 67.230469 299.226562 66.632812 C 300.480469 66.015625 301.851562 65.707031 303.335938 65.707031 C 305.871094 65.707031 307.824219 66.335938 309.195312 67.59375 C 310.566406 68.832031 311.25 70.566406 311.25 72.808594 L 311.25 83.753906 L 307.652344 83.753906 L 307.652344 81.59375 L 307.449219 81.59375 C 306.992188 82.300781 306.304688 82.929688 305.394531 83.480469 C 304.480469 84.027344 303.382812 84.304688 302.105469 84.304688 Z M 302.753906 81.285156 C 303.714844 81.285156 304.558594 81.054688 305.289062 80.597656 C 306.019531 80.140625 306.589844 79.546875 307.003906 78.8125 C 307.4375 78.058594 307.652344 77.246094 307.652344 76.378906 C 307.128906 76.082031 306.511719 75.839844 305.804688 75.65625 C 305.097656 75.453125 304.34375 75.347656 303.542969 75.347656 C 302.035156 75.347656 300.960938 75.65625 300.324219 76.273438 C 299.683594 76.871094 299.363281 77.601562 299.363281 78.472656 C 299.363281 79.292969 299.671875 79.96875 300.289062 80.496094 C 300.90625 81.019531 301.726562 81.285156 302.753906 81.285156 Z M 315.355469 83.753906 L 315.355469 59.1875 L 319.058594 59.1875 L 319.058594 83.753906 Z M 323.453125 83.753906 L 323.453125 59.1875 L 327.152344 59.1875 L 327.152344 83.753906 Z M 339.328125 84.304688 C 337.617188 84.304688 336.085938 83.902344 334.738281 83.101562 C 333.390625 82.300781 332.332031 81.203125 331.550781 79.808594 C 330.796875 78.414062 330.421875 76.824219 330.421875 75.039062 C 330.421875 73.371094 330.789062 71.828125 331.519531 70.410156 C 332.25 68.988281 333.265625 67.859375 334.566406 67.011719 C 335.894531 66.140625 337.410156 65.707031 339.125 65.707031 C 340.929688 65.707031 342.457031 66.097656 343.714844 66.875 C 344.992188 67.652344 345.964844 68.714844 346.625 70.066406 C 347.289062 71.414062 347.617188 72.9375 347.617188 74.628906 C 347.617188 74.878906 347.609375 75.109375 347.585938 75.316406 C 347.585938 75.519531 347.574219 75.679688 347.550781 75.792969 L 334.054688 75.792969 C 334.238281 77.53125 334.839844 78.835938 335.867188 79.707031 C 336.921875 80.574219 338.109375 81.011719 339.429688 81.011719 C 340.621094 81.011719 341.601562 80.746094 342.378906 80.222656 C 343.15625 79.671875 343.773438 78.996094 344.226562 78.195312 L 347.277344 79.671875 C 346.523438 81.042969 345.496094 82.164062 344.191406 83.035156 C 342.890625 83.878906 341.269531 84.304688 339.328125 84.304688 Z M 339.15625 68.863281 C 337.925781 68.863281 336.875 69.242188 336.003906 69.996094 C 335.140625 70.75 334.558594 71.757812 334.257812 73.015625 L 343.953125 73.015625 C 343.910156 72.421875 343.714844 71.804688 343.371094 71.164062 C 343.027344 70.523438 342.503906 69.984375 341.796875 69.550781 C 341.109375 69.09375 340.230469 68.863281 339.15625 68.863281 Z M 352.402344 78.675781 L 352.402344 69.480469 L 349.351562 69.480469 L 349.351562 66.257812 L 352.402344 66.257812 L 352.402344 61.316406 L 356.101562 61.316406 L 356.101562 66.257812 L 360.382812 66.257812 L 360.382812 69.480469 L 356.101562 69.480469 L 356.101562 77.886719 C 356.101562 78.757812 356.269531 79.421875 356.613281 79.878906 C 356.980469 80.335938 357.582031 80.5625 358.429688 80.5625 C 358.863281 80.5625 359.226562 80.507812 359.527344 80.390625 C 359.84375 80.277344 360.164062 80.117188 360.484375 79.910156 L 360.484375 83.515625 C 360.097656 83.675781 359.683594 83.800781 359.25 83.890625 C 358.816406 83.984375 358.300781 84.027344 357.710938 84.027344 C 356.089844 84.027344 354.796875 83.558594 353.839844 82.621094 C 352.878906 81.660156 352.402344 80.347656 352.402344 78.675781 Z M 352.402344 78.675781 "/>
<path style="fill:none;stroke-width:1;stroke-linecap:butt;stroke-linejoin:miter;stroke:rgb(45.490196%,46.666667%,45.882353%);stroke-opacity:1;stroke-miterlimit:4;" d="M 27.499747 0.499367 L 171.500253 0.499367 C 186.411296 0.499367 198.499864 12.588682 198.499864 27.5 C 198.499864 42.411318 186.411296 54.500633 171.500253 54.500633 L 27.499747 54.500633 C 12.588704 54.500633 0.500136 42.411318 0.500136 27.5 C 0.500136 12.588682 12.588704 0.499367 27.499747 0.499367 Z M 27.499747 0.499367 " transform="matrix(2.015075,0,0,2.018182,0,0)"/>
</g>
</svg>
