<?xml version="1.0" encoding="UTF-8"?>
<svg xmlns="http://www.w3.org/2000/svg" xmlns:xlink="http://www.w3.org/1999/xlink" width="300px" height="83px" viewBox="0 0 300 83" version="1.1">
<defs>
<linearGradient id="linear0" gradientUnits="userSpaceOnUse" x1="37.2843" y1="34.0448" x2="18.7823" y2="55.7227" gradientTransform="matrix(1.507538,0,0,1.509091,0,0)">
<stop offset="0" style="stop-color:rgb(25.882353%,52.156863%,95.686275%);stop-opacity:1;"/>
<stop offset="1" style="stop-color:rgb(10.588235%,45.490196%,90.980392%);stop-opacity:1;"/>
</linearGradient>
</defs>
<g id="surface1">
<path style=" stroke:none;fill-rule:nonzero;fill:rgb(12.156863%,12.156863%,12.156863%);fill-opacity:1;" d="M 41.457031 0.753906 L 258.542969 0.753906 C 281.023438 0.753906 299.246094 18.996094 299.246094 41.5 C 299.246094 64.003906 281.023438 82.246094 258.542969 82.246094 L 41.457031 82.246094 C 18.976562 82.246094 0.753906 64.003906 0.753906 41.5 C 0.753906 18.996094 18.976562 0.753906 41.457031 0.753906 Z M 41.457031 0.753906 "/>
<path style=" stroke:none;fill-rule:nonzero;fill:rgb(20.392157%,65.882353%,32.54902%);fill-opacity:1;" d="M 85.929688 35.902344 L 31.660156 35.902344 L 31.660156 27.382812 C 31.660156 22.757812 35.640625 18.863281 40.371094 18.863281 L 77.214844 18.863281 C 81.945312 18.863281 85.929688 22.757812 85.929688 27.382812 Z M 85.929688 35.902344 "/>
<path style=" stroke:none;fill-rule:nonzero;fill:rgb(98.431373%,73.72549%,1.568627%);fill-opacity:1;" d="M 85.929688 43.761719 L 31.660156 43.761719 L 31.660156 34.710938 C 31.660156 29.792969 35.640625 25.65625 40.371094 25.65625 L 77.214844 25.65625 C 81.945312 25.65625 85.929688 29.792969 85.929688 34.710938 Z M 85.929688 43.761719 "/>
<path style=" stroke:none;fill-rule:nonzero;fill:rgb(91.764706%,26.27451%,20.784314%);fill-opacity:1;" d="M 85.929688 51.308594 L 31.660156 51.308594 L 31.660156 42.253906 C 31.660156 37.339844 35.640625 33.199219 40.371094 33.199219 L 77.214844 33.199219 C 81.945312 33.199219 85.929688 37.339844 85.929688 42.253906 Z M 85.929688 51.308594 "/>
<path style=" stroke:none;fill-rule:nonzero;fill:url(#linear0);" d="M 31.660156 38.089844 L 66.105469 45.878906 C 70.070312 46.855469 74.53125 45.878906 77.75 43.445312 L 85.929688 37.605469 L 85.929688 55.859375 C 85.929688 60.484375 81.964844 64.136719 77.257812 64.136719 L 40.332031 64.136719 C 35.625 64.136719 31.660156 60.484375 31.660156 55.859375 Z M 31.660156 38.089844 "/>
<path style=" stroke:none;fill-rule:nonzero;fill:rgb(100%,100%,100%);fill-opacity:1;" d="M 104.3125 32.445312 L 109.605469 18.398438 L 112.054688 18.398438 L 117.367188 32.445312 L 114.996094 32.445312 L 113.703125 28.835938 L 107.980469 28.835938 L 106.683594 32.445312 Z M 110.253906 22.539062 L 108.703125 26.835938 L 112.976562 26.835938 L 111.429688 22.539062 L 110.898438 20.929688 L 110.78125 20.929688 Z M 122.886719 32.757812 C 121.984375 32.757812 121.167969 32.535156 120.4375 32.09375 C 119.71875 31.632812 119.144531 31.007812 118.710938 30.207031 C 118.292969 29.398438 118.085938 28.476562 118.085938 27.441406 C 118.085938 26.410156 118.292969 25.492188 118.710938 24.695312 C 119.144531 23.898438 119.71875 23.269531 120.4375 22.8125 C 121.167969 22.355469 121.984375 22.125 122.886719 22.125 C 123.65625 22.125 124.316406 22.296875 124.867188 22.636719 C 125.425781 22.976562 125.839844 23.363281 126.101562 23.792969 L 126.21875 23.792969 L 126.101562 22.402344 L 126.101562 18.398438 L 128.195312 18.398438 L 128.195312 32.445312 L 126.21875 32.445312 L 126.21875 31.113281 L 126.101562 31.113281 C 125.839844 31.542969 125.425781 31.929688 124.867188 32.269531 C 124.316406 32.597656 123.65625 32.757812 122.886719 32.757812 Z M 123.199219 30.816406 C 123.722656 30.816406 124.210938 30.679688 124.667969 30.40625 C 125.140625 30.128906 125.511719 29.746094 125.785156 29.246094 C 126.074219 28.738281 126.21875 28.136719 126.21875 27.441406 C 126.21875 26.75 126.074219 26.15625 125.785156 25.65625 C 125.511719 25.148438 125.140625 24.753906 124.667969 24.480469 C 124.210938 24.207031 123.722656 24.070312 123.199219 24.070312 C 122.675781 24.070312 122.1875 24.207031 121.730469 24.480469 C 121.273438 24.753906 120.898438 25.148438 120.613281 25.65625 C 120.324219 26.15625 120.179688 26.75 120.179688 27.441406 C 120.179688 28.136719 120.324219 28.738281 120.613281 29.246094 C 120.898438 29.746094 121.273438 30.128906 121.730469 30.40625 C 122.1875 30.679688 122.675781 30.816406 123.199219 30.816406 Z M 134.867188 32.757812 C 133.964844 32.757812 133.148438 32.535156 132.417969 32.09375 C 131.699219 31.632812 131.125 31.007812 130.691406 30.207031 C 130.273438 29.398438 130.066406 28.476562 130.066406 27.441406 C 130.066406 26.410156 130.273438 25.492188 130.691406 24.695312 C 131.125 23.898438 131.699219 23.269531 132.417969 22.8125 C 133.148438 22.355469 133.964844 22.125 134.867188 22.125 C 135.636719 22.125 136.296875 22.296875 136.847656 22.636719 C 137.40625 22.976562 137.820312 23.363281 138.082031 23.792969 L 138.199219 23.792969 L 138.082031 22.402344 L 138.082031 18.398438 L 140.179688 18.398438 L 140.179688 32.445312 L 138.199219 32.445312 L 138.199219 31.113281 L 138.082031 31.113281 C 137.820312 31.542969 137.40625 31.929688 136.847656 32.269531 C 136.296875 32.597656 135.636719 32.757812 134.867188 32.757812 Z M 135.179688 30.816406 C 135.703125 30.816406 136.191406 30.679688 136.648438 30.40625 C 137.121094 30.128906 137.492188 29.746094 137.765625 29.246094 C 138.054688 28.738281 138.199219 28.136719 138.199219 27.441406 C 138.199219 26.75 138.054688 26.15625 137.765625 25.65625 C 137.492188 25.148438 137.121094 24.753906 136.648438 24.480469 C 136.191406 24.207031 135.703125 24.070312 135.179688 24.070312 C 134.65625 24.070312 134.167969 24.207031 133.710938 24.480469 C 133.253906 24.753906 132.878906 25.148438 132.59375 25.65625 C 132.304688 26.15625 132.164062 26.75 132.164062 27.441406 C 132.164062 28.136719 132.304688 28.738281 132.59375 29.246094 C 132.878906 29.746094 133.253906 30.128906 133.710938 30.40625 C 134.167969 30.679688 134.65625 30.816406 135.179688 30.816406 Z M 148.304688 29.542969 L 148.304688 24.285156 L 146.558594 24.285156 L 146.558594 22.441406 L 148.304688 22.441406 L 148.304688 19.613281 L 150.417969 19.613281 L 150.417969 22.441406 L 152.871094 22.441406 L 152.871094 24.285156 L 150.417969 24.285156 L 150.417969 29.089844 C 150.417969 29.585938 150.519531 29.96875 150.714844 30.230469 C 150.921875 30.488281 151.269531 30.621094 151.753906 30.621094 C 152 30.621094 152.210938 30.589844 152.378906 30.523438 C 152.5625 30.457031 152.746094 30.367188 152.929688 30.25 L 152.929688 32.308594 C 152.707031 32.398438 152.472656 32.472656 152.222656 32.523438 C 151.976562 32.578125 151.679688 32.601562 151.339844 32.601562 C 150.414062 32.601562 149.675781 32.335938 149.125 31.796875 C 148.578125 31.25 148.304688 30.496094 148.304688 29.542969 Z M 159.222656 32.757812 C 158.1875 32.757812 157.28125 32.523438 156.496094 32.054688 C 155.714844 31.582031 155.097656 30.949219 154.65625 30.148438 C 154.210938 29.351562 153.988281 28.449219 153.988281 27.441406 C 153.988281 26.449219 154.210938 25.554688 154.65625 24.753906 C 155.097656 23.945312 155.714844 23.304688 156.496094 22.832031 C 157.28125 22.363281 158.1875 22.125 159.222656 22.125 C 160.242188 22.125 161.140625 22.363281 161.925781 22.832031 C 162.710938 23.304688 163.324219 23.945312 163.769531 24.753906 C 164.210938 25.554688 164.433594 26.449219 164.433594 27.441406 C 164.433594 28.449219 164.210938 29.351562 163.769531 30.148438 C 163.324219 30.949219 162.710938 31.582031 161.925781 32.054688 C 161.140625 32.523438 160.242188 32.757812 159.222656 32.757812 Z M 159.222656 30.816406 C 159.769531 30.816406 160.28125 30.6875 160.75 30.425781 C 161.21875 30.148438 161.597656 29.765625 161.886719 29.265625 C 162.1875 28.757812 162.335938 28.148438 162.335938 27.441406 C 162.335938 26.738281 162.1875 26.136719 161.886719 25.636719 C 161.597656 25.128906 161.21875 24.742188 160.75 24.480469 C 160.28125 24.207031 159.769531 24.070312 159.222656 24.070312 C 158.671875 24.070312 158.15625 24.207031 157.671875 24.480469 C 157.203125 24.742188 156.816406 25.128906 156.515625 25.636719 C 156.230469 26.136719 156.085938 26.738281 156.085938 27.441406 C 156.085938 28.148438 156.230469 28.757812 156.515625 29.265625 C 156.816406 29.765625 157.203125 30.148438 157.671875 30.425781 C 158.15625 30.6875 158.671875 30.816406 159.222656 30.816406 Z M 159.222656 30.816406 "/>
<path style=" stroke:none;fill-rule:nonzero;fill:rgb(100%,100%,100%);fill-opacity:1;" d="M 114.785156 63.039062 C 113.46875 63.039062 112.230469 62.796875 111.066406 62.320312 C 109.921875 61.839844 108.90625 61.171875 108.019531 60.320312 C 107.128906 59.445312 106.429688 58.429688 105.917969 57.265625 C 105.421875 56.085938 105.171875 54.8125 105.171875 53.441406 C 105.171875 52.074219 105.421875 50.808594 105.917969 49.644531 C 106.429688 48.464844 107.121094 47.449219 107.992188 46.59375 C 108.878906 45.722656 109.90625 45.046875 111.066406 44.566406 C 112.230469 44.085938 113.46875 43.847656 114.785156 43.847656 C 116.183594 43.847656 117.476562 44.097656 118.652344 44.59375 C 119.851562 45.089844 120.847656 45.78125 121.652344 46.671875 L 119.703125 48.59375 C 119.105469 47.925781 118.390625 47.414062 117.550781 47.054688 C 116.730469 46.695312 115.808594 46.515625 114.785156 46.515625 C 113.570312 46.515625 112.453125 46.808594 111.425781 47.386719 C 110.402344 47.953125 109.574219 48.757812 108.941406 49.800781 C 108.324219 50.828125 108.019531 52.039062 108.019531 53.441406 C 108.019531 54.84375 108.335938 56.066406 108.964844 57.113281 C 109.597656 58.136719 110.425781 58.941406 111.453125 59.523438 C 112.476562 60.085938 113.597656 60.371094 114.808594 60.371094 C 115.921875 60.371094 116.929688 60.164062 117.832031 59.753906 C 118.738281 59.328125 119.464844 58.726562 120.011719 57.957031 C 120.574219 57.1875 120.917969 56.265625 121.039062 55.1875 L 114.757812 55.1875 L 114.757812 52.699219 L 123.675781 52.699219 C 123.78125 53.160156 123.832031 53.648438 123.832031 54.160156 L 123.832031 54.1875 C 123.832031 55.964844 123.4375 57.523438 122.652344 58.855469 C 121.882812 60.171875 120.816406 61.199219 119.449219 61.933594 C 118.082031 62.671875 116.527344 63.039062 114.785156 63.039062 Z M 132.082031 63.039062 C 130.734375 63.039062 129.546875 62.730469 128.519531 62.113281 C 127.496094 61.5 126.691406 60.667969 126.113281 59.625 C 125.53125 58.582031 125.238281 57.402344 125.238281 56.085938 C 125.238281 54.785156 125.53125 53.613281 126.113281 52.570312 C 126.691406 51.511719 127.496094 50.671875 128.519531 50.054688 C 129.546875 49.441406 130.734375 49.132812 132.082031 49.132812 C 133.414062 49.132812 134.59375 49.441406 135.621094 50.054688 C 136.644531 50.671875 137.449219 51.511719 138.027344 52.570312 C 138.609375 53.613281 138.898438 54.785156 138.898438 56.085938 C 138.898438 57.402344 138.609375 58.582031 138.027344 59.625 C 137.449219 60.667969 136.644531 61.5 135.621094 62.113281 C 134.59375 62.730469 133.414062 63.039062 132.082031 63.039062 Z M 132.082031 60.496094 C 132.800781 60.496094 133.464844 60.328125 134.082031 59.984375 C 134.695312 59.625 135.191406 59.121094 135.566406 58.472656 C 135.960938 57.804688 136.15625 57.007812 136.15625 56.085938 C 136.15625 55.160156 135.960938 54.375 135.566406 53.726562 C 135.191406 53.058594 134.695312 52.554688 134.082031 52.210938 C 133.464844 51.851562 132.800781 51.671875 132.082031 51.671875 C 131.363281 51.671875 130.691406 51.851562 130.058594 52.210938 C 129.441406 52.554688 128.9375 53.058594 128.546875 53.726562 C 128.171875 54.375 127.980469 55.160156 127.980469 56.085938 C 127.980469 57.007812 128.171875 57.804688 128.546875 58.472656 C 128.9375 59.121094 129.441406 59.625 130.058594 59.984375 C 130.691406 60.328125 131.363281 60.496094 132.082031 60.496094 Z M 147.601562 63.039062 C 146.25 63.039062 145.0625 62.730469 144.039062 62.113281 C 143.011719 61.5 142.210938 60.667969 141.628906 59.625 C 141.046875 58.582031 140.757812 57.402344 140.757812 56.085938 C 140.757812 54.785156 141.046875 53.613281 141.628906 52.570312 C 142.210938 51.511719 143.011719 50.671875 144.039062 50.054688 C 145.0625 49.441406 146.25 49.132812 147.601562 49.132812 C 148.933594 49.132812 150.109375 49.441406 151.136719 50.054688 C 152.160156 50.671875 152.964844 51.511719 153.546875 52.570312 C 154.125 53.613281 154.417969 54.785156 154.417969 56.085938 C 154.417969 57.402344 154.125 58.582031 153.546875 59.625 C 152.964844 60.667969 152.160156 61.5 151.136719 62.113281 C 150.109375 62.730469 148.933594 63.039062 147.601562 63.039062 Z M 147.601562 60.496094 C 148.316406 60.496094 148.984375 60.328125 149.597656 59.984375 C 150.214844 59.625 150.710938 59.121094 151.085938 58.472656 C 151.480469 57.804688 151.675781 57.007812 151.675781 56.085938 C 151.675781 55.160156 151.480469 54.375 151.085938 53.726562 C 150.710938 53.058594 150.214844 52.554688 149.597656 52.210938 C 148.984375 51.851562 148.316406 51.671875 147.601562 51.671875 C 146.882812 51.671875 146.207031 51.851562 145.574219 52.210938 C 144.960938 52.554688 144.457031 53.058594 144.0625 53.726562 C 143.6875 54.375 143.5 55.160156 143.5 56.085938 C 143.5 57.007812 143.6875 57.804688 144.0625 58.472656 C 144.457031 59.121094 144.960938 59.625 145.574219 59.984375 C 146.207031 60.328125 146.882812 60.496094 147.601562 60.496094 Z M 162.859375 68.578125 C 161.714844 68.578125 160.726562 68.390625 159.886719 68.015625 C 159.066406 67.65625 158.402344 67.183594 157.890625 66.605469 C 157.375 66.039062 157.007812 65.457031 156.785156 64.859375 L 159.351562 63.78125 C 159.621094 64.464844 160.058594 65.023438 160.65625 65.449219 C 161.273438 65.894531 162.007812 66.117188 162.859375 66.117188 C 164.054688 66.117188 164.996094 65.757812 165.679688 65.039062 C 166.378906 64.320312 166.730469 63.304688 166.730469 61.984375 L 166.730469 60.730469 L 166.578125 60.730469 C 166.167969 61.34375 165.59375 61.839844 164.859375 62.21875 C 164.140625 62.574219 163.320312 62.753906 162.398438 62.753906 C 161.289062 62.753906 160.273438 62.472656 159.351562 61.910156 C 158.425781 61.34375 157.683594 60.558594 157.121094 59.546875 C 156.554688 58.523438 156.273438 57.324219 156.273438 55.957031 C 156.273438 54.570312 156.554688 53.375 157.121094 52.367188 C 157.683594 51.339844 158.425781 50.542969 159.351562 49.980469 C 160.273438 49.414062 161.289062 49.132812 162.398438 49.132812 C 163.320312 49.132812 164.140625 49.320312 164.859375 49.699219 C 165.59375 50.074219 166.167969 50.570312 166.578125 51.183594 L 166.730469 51.183594 L 166.730469 49.542969 L 169.371094 49.542969 L 169.371094 61.933594 C 169.371094 63.355469 169.089844 64.558594 168.523438 65.550781 C 167.976562 66.542969 167.21875 67.296875 166.242188 67.808594 C 165.269531 68.324219 164.140625 68.578125 162.859375 68.578125 Z M 162.886719 60.242188 C 163.570312 60.242188 164.199219 60.078125 164.78125 59.753906 C 165.363281 59.410156 165.832031 58.925781 166.191406 58.292969 C 166.550781 57.640625 166.730469 56.863281 166.730469 55.957031 C 166.730469 55.015625 166.550781 54.230469 166.191406 53.597656 C 165.832031 52.945312 165.363281 52.460938 164.78125 52.132812 C 164.199219 51.808594 163.570312 51.648438 162.886719 51.648438 C 162.203125 51.648438 161.5625 51.816406 160.964844 52.160156 C 160.382812 52.484375 159.914062 52.964844 159.554688 53.597656 C 159.195312 54.230469 159.015625 55.015625 159.015625 55.957031 C 159.015625 56.878906 159.195312 57.667969 159.554688 58.316406 C 159.914062 58.949219 160.382812 59.429688 160.964844 59.753906 C 161.5625 60.078125 162.203125 60.242188 162.886719 60.242188 Z M 172.632812 62.628906 L 172.632812 44.257812 L 175.402344 44.257812 L 175.402344 62.628906 Z M 184.511719 63.039062 C 183.230469 63.039062 182.085938 62.738281 181.078125 62.140625 C 180.070312 61.542969 179.273438 60.71875 178.691406 59.675781 C 178.128906 58.632812 177.847656 57.445312 177.847656 56.109375 C 177.847656 54.863281 178.121094 53.707031 178.667969 52.648438 C 179.214844 51.585938 179.972656 50.742188 180.949219 50.109375 C 181.941406 49.457031 183.074219 49.132812 184.355469 49.132812 C 185.707031 49.132812 186.851562 49.421875 187.789062 50.003906 C 188.75 50.585938 189.476562 51.382812 189.96875 52.390625 C 190.464844 53.398438 190.710938 54.539062 190.710938 55.804688 C 190.710938 55.992188 190.703125 56.164062 190.6875 56.316406 C 190.6875 56.46875 190.679688 56.589844 190.660156 56.675781 L 180.5625 56.675781 C 180.699219 57.976562 181.152344 58.949219 181.921875 59.601562 C 182.710938 60.25 183.597656 60.574219 184.585938 60.574219 C 185.476562 60.574219 186.210938 60.378906 186.792969 59.984375 C 187.375 59.574219 187.835938 59.070312 188.175781 58.472656 L 190.457031 59.574219 C 189.890625 60.601562 189.125 61.4375 188.148438 62.089844 C 187.175781 62.722656 185.964844 63.039062 184.511719 63.039062 Z M 184.382812 51.492188 C 183.460938 51.492188 182.675781 51.777344 182.023438 52.339844 C 181.375 52.902344 180.941406 53.65625 180.71875 54.597656 L 187.96875 54.597656 C 187.9375 54.152344 187.789062 53.691406 187.535156 53.210938 C 187.277344 52.734375 186.886719 52.332031 186.355469 52.007812 C 185.84375 51.664062 185.1875 51.492188 184.382812 51.492188 Z M 201.976562 62.628906 L 197.058594 44.257812 L 200.183594 44.257812 L 203.105469 56.1875 L 203.414062 57.777344 L 203.566406 57.777344 L 203.953125 56.1875 L 207.640625 44.257812 L 210.460938 44.257812 L 213.996094 56.1875 L 214.382812 57.753906 L 214.535156 57.753906 L 214.84375 56.1875 L 217.765625 44.257812 L 220.867188 44.257812 L 216.023438 62.628906 L 213.050781 62.628906 L 209.539062 50.441406 L 209.128906 48.722656 L 208.976562 48.722656 L 208.539062 50.441406 L 204.875 62.628906 Z M 226.011719 63.039062 C 225.074219 63.039062 224.234375 62.859375 223.5 62.5 C 222.765625 62.121094 222.195312 61.601562 221.785156 60.933594 C 221.375 60.265625 221.167969 59.507812 221.167969 58.652344 C 221.167969 57.726562 221.410156 56.941406 221.886719 56.289062 C 222.382812 55.625 223.039062 55.117188 223.859375 54.777344 C 224.679688 54.433594 225.585938 54.265625 226.578125 54.265625 C 227.398438 54.265625 228.113281 54.339844 228.730469 54.496094 C 229.359375 54.648438 229.839844 54.8125 230.164062 54.980469 L 230.164062 54.289062 C 230.164062 53.433594 229.855469 52.75 229.242188 52.238281 C 228.628906 51.722656 227.832031 51.46875 226.859375 51.46875 C 226.191406 51.46875 225.5625 51.621094 224.960938 51.929688 C 224.363281 52.21875 223.886719 52.621094 223.527344 53.136719 L 221.628906 51.671875 C 222.195312 50.886719 222.9375 50.269531 223.859375 49.824219 C 224.800781 49.363281 225.824219 49.132812 226.9375 49.132812 C 228.832031 49.132812 230.292969 49.601562 231.316406 50.542969 C 232.34375 51.46875 232.855469 52.765625 232.855469 54.445312 L 232.855469 62.628906 L 230.164062 62.628906 L 230.164062 61.011719 L 230.011719 61.011719 C 229.667969 61.542969 229.15625 62.011719 228.472656 62.421875 C 227.789062 62.832031 226.96875 63.039062 226.011719 63.039062 Z M 226.5 60.78125 C 227.21875 60.78125 227.847656 60.609375 228.394531 60.265625 C 228.945312 59.925781 229.371094 59.480469 229.679688 58.933594 C 230.003906 58.367188 230.164062 57.761719 230.164062 57.113281 C 229.769531 56.890625 229.308594 56.710938 228.78125 56.574219 C 228.25 56.417969 227.6875 56.34375 227.089844 56.34375 C 225.960938 56.34375 225.160156 56.574219 224.679688 57.035156 C 224.203125 57.480469 223.960938 58.027344 223.960938 58.675781 C 223.960938 59.292969 224.195312 59.796875 224.65625 60.191406 C 225.117188 60.582031 225.730469 60.78125 226.5 60.78125 Z M 235.929688 62.628906 L 235.929688 44.257812 L 238.695312 44.257812 L 238.695312 62.628906 Z M 241.984375 62.628906 L 241.984375 44.257812 L 244.753906 44.257812 L 244.753906 62.628906 Z M 253.863281 63.039062 C 252.582031 63.039062 251.4375 62.738281 250.425781 62.140625 C 249.421875 61.542969 248.625 60.71875 248.042969 59.675781 C 247.480469 58.632812 247.199219 57.445312 247.199219 56.109375 C 247.199219 54.863281 247.472656 53.707031 248.019531 52.648438 C 248.566406 51.585938 249.324219 50.742188 250.300781 50.109375 C 251.292969 49.457031 252.425781 49.132812 253.707031 49.132812 C 255.058594 49.132812 256.203125 49.421875 257.140625 50.003906 C 258.097656 50.585938 258.824219 51.382812 259.320312 52.390625 C 259.816406 53.398438 260.0625 54.539062 260.0625 55.804688 C 260.0625 55.992188 260.054688 56.164062 260.039062 56.316406 C 260.039062 56.46875 260.03125 56.589844 260.011719 56.675781 L 249.914062 56.675781 C 250.050781 57.976562 250.503906 58.949219 251.273438 59.601562 C 252.058594 60.25 252.949219 60.574219 253.9375 60.574219 C 254.828125 60.574219 255.5625 60.378906 256.144531 59.984375 C 256.726562 59.574219 257.1875 59.070312 257.527344 58.472656 L 259.808594 59.574219 C 259.242188 60.601562 258.476562 61.4375 257.5 62.089844 C 256.527344 62.722656 255.316406 63.039062 253.863281 63.039062 Z M 253.734375 51.492188 C 252.8125 51.492188 252.027344 51.777344 251.375 52.339844 C 250.726562 52.902344 250.292969 53.65625 250.070312 54.597656 L 257.320312 54.597656 C 257.289062 54.152344 257.140625 53.691406 256.886719 53.210938 C 256.628906 52.734375 256.238281 52.332031 255.707031 52.007812 C 255.195312 51.664062 254.539062 51.492188 253.734375 51.492188 Z M 263.640625 58.832031 L 263.640625 51.953125 L 261.359375 51.953125 L 261.359375 49.542969 L 263.640625 49.542969 L 263.640625 45.847656 L 266.410156 45.847656 L 266.410156 49.542969 L 269.613281 49.542969 L 269.613281 51.953125 L 266.410156 51.953125 L 266.410156 58.242188 C 266.410156 58.890625 266.539062 59.386719 266.792969 59.726562 C 267.066406 60.070312 267.519531 60.242188 268.152344 60.242188 C 268.476562 60.242188 268.75 60.199219 268.972656 60.113281 C 269.210938 60.027344 269.449219 59.90625 269.6875 59.753906 L 269.6875 62.449219 C 269.398438 62.566406 269.089844 62.660156 268.765625 62.730469 C 268.441406 62.796875 268.058594 62.832031 267.613281 62.832031 C 266.398438 62.832031 265.433594 62.480469 264.71875 61.78125 C 264 61.0625 263.640625 60.078125 263.640625 58.832031 Z M 263.640625 58.832031 "/>
<path style="fill:none;stroke-width:1;stroke-linecap:butt;stroke-linejoin:miter;stroke:rgb(45.490196%,46.666667%,45.882353%);stroke-opacity:1;stroke-miterlimit:4;" d="M 27.499831 0.499576 L 171.500169 0.499576 C 186.412214 0.499576 198.499909 12.587773 198.499909 27.5 C 198.499909 42.412227 186.412214 54.500424 171.500169 54.500424 L 27.499831 54.500424 C 12.587786 54.500424 0.500091 42.412227 0.500091 27.5 C 0.500091 12.587773 12.587786 0.499576 27.499831 0.499576 Z M 27.499831 0.499576 " transform="matrix(1.507538,0,0,1.509091,0,0)"/>
</g>
</svg>
